<?xml version="1.0" standalone="no"?>
<!DOCTYPE svg PUBLIC "-//W3C//DTD SVG 20010904//EN"
 "http://www.w3.org/TR/2001/REC-SVG-20010904/DTD/svg10.dtd">
<svg version="1.0" xmlns="http://www.w3.org/2000/svg"
 width="250.000000pt" height="257.000000pt" viewBox="0 0 250.000000 257.000000"
 preserveAspectRatio="xMidYMid meet">
<metadata>
Created by potrace 1.10, written by Peter Selinger 2001-2011
</metadata>
<g transform="translate(0.000000,257.000000) scale(0.100000,-0.100000)"
fill="#000000" stroke="none">
<path d="M863 2390 c-40 -9 -74 -31 -133 -85 -25 -23 -85 -63 -135 -90 -135
-72 -211 -130 -250 -188 -54 -84 -91 -245 -115 -504 -11 -120 -31 -288 -45
-373 -24 -153 -31 -217 -60 -558 -19 -214 -19 -262 -1 -287 8 -11 18 -40 23
-65 8 -41 12 -46 56 -62 26 -10 82 -27 125 -38 l77 -21 15 23 c8 13 32 40 52
60 22 22 39 51 42 70 7 38 31 359 46 603 10 161 34 353 46 364 6 7 0 -84 -26
-399 -35 -415 -41 -529 -30 -549 5 -11 10 -35 10 -53 0 -51 17 -67 95 -83 223
-46 1095 -39 1212 10 20 8 34 23 37 37 24 115 31 251 17 346 -34 231 -66 720
-46 701 11 -11 35 -197 45 -344 9 -142 42 -496 56 -613 4 -32 17 -55 55 -99
27 -31 49 -60 49 -64 0 -19 249 54 255 74 2 7 13 45 26 84 l23 73 -17 152
c-10 84 -22 209 -27 278 -13 164 -28 295 -45 400 -8 47 -24 186 -35 310 -23
243 -60 417 -106 496 -38 68 -119 132 -234 187 -80 39 -121 66 -175 117 -39
37 -80 72 -92 78 -29 16 -138 8 -193 -13 -37 -15 -78 -18 -220 -19 -164 0
-178 1 -219 23 -24 12 -52 20 -63 17 -11 -2 -30 -1 -42 3 -11 4 -36 5 -53 1z
m197 -880 l0 -40 -100 0 -100 0 0 -55 0 -55 420 0 420 0 0 -40 0 -40 -420 0
-420 0 0 -81 0 -80 -37 3 -38 3 -3 213 -2 212 140 0 140 0 0 -40z m276 21 c44
-20 74 -56 92 -110 17 -49 16 -51 -23 -51 -30 0 -37 5 -49 34 -21 50 -50 66
-123 66 l-63 0 0 -50 0 -50 -35 0 -35 0 0 90 0 90 98 0 c73 0 107 -5 138 -19z
m434 -21 l0 -40 -100 0 -100 0 0 -50 0 -50 -35 0 -35 0 0 90 0 90 135 0 135 0
0 -40z m-600 -281 l0 -31 65 4 c53 3 70 9 93 31 20 19 39 27 65 27 20 0 37 -2
37 -5 0 -17 -33 -66 -60 -88 -41 -35 -89 -47 -187 -47 l-83 0 0 70 0 70 35 0
c33 0 35 -2 35 -31z m400 -39 l0 -70 -35 0 -35 0 0 70 0 70 35 0 35 0 0 -70z"/>
<path d="M870 1322 c0 -15 4 -20 16 -15 9 3 12 9 7 12 -4 3 -11 10 -15 15 -5
5 -8 0 -8 -12z"/>
<path d="M922 1320 c0 -14 2 -19 5 -12 2 6 2 18 0 25 -3 6 -5 1 -5 -13z"/>
<path d="M976 1324 c-9 -24 -7 -31 4 -14 9 13 11 13 20 0 11 -17 13 -10 4 14
-3 9 -10 16 -14 16 -4 0 -11 -7 -14 -16z"/>
<path d="M1030 1322 c0 -10 7 -19 15 -19 8 0 15 2 15 4 0 3 -7 11 -15 19 -13
14 -15 13 -15 -4z"/>
<path d="M1160 1323 c0 -13 5 -22 13 -20 14 2 27 18 27 32 0 6 -5 3 -10 -5 -9
-13 -11 -13 -20 0 -8 12 -10 11 -10 -7z"/>
<path d="M1250 1320 c6 -11 13 -20 16 -20 2 0 0 9 -6 20 -6 11 -13 20 -16 20
-2 0 0 -9 6 -20z"/>
<path d="M1270 1330 c0 -7 3 -10 7 -7 3 4 3 10 0 14 -4 3 -7 0 -7 -7z"/>
<path d="M1302 1320 c0 -14 2 -19 5 -12 2 6 2 18 0 25 -3 6 -5 1 -5 -13z"/>
<path d="M1355 1330 c3 -5 8 -10 11 -10 3 0 2 5 -1 10 -3 6 -8 10 -11 10 -3 0
-2 -4 1 -10z"/>
<path d="M1430 1322 c0 -15 4 -20 16 -15 9 3 12 9 7 12 -4 3 -11 10 -15 15 -5
5 -8 0 -8 -12z"/>
<path d="M1486 1324 c-9 -24 -7 -27 9 -10 17 17 19 26 6 26 -5 0 -12 -7 -15
-16z"/>
<path d="M1542 1320 c0 -14 2 -19 5 -12 2 6 2 18 0 25 -3 6 -5 1 -5 -13z"/>
<path d="M1582 1320 c0 -14 2 -19 5 -12 2 6 2 18 0 25 -3 6 -5 1 -5 -13z"/>
<path d="M1622 1320 c0 -14 2 -19 5 -12 2 6 2 18 0 25 -3 6 -5 1 -5 -13z"/>
<path d="M1380 1310 c0 -7 3 -10 7 -7 3 4 3 10 0 14 -4 3 -7 0 -7 -7z"/>
</g>
</svg>
