<?xml version="1.0" standalone="no"?>
<!DOCTYPE svg PUBLIC "-//W3C//DTD SVG 20010904//EN"
 "http://www.w3.org/TR/2001/REC-SVG-20010904/DTD/svg10.dtd">
<svg version="1.0" xmlns="http://www.w3.org/2000/svg"
 width="820.000000pt" height="775.000000pt" viewBox="0 0 820.000000 775.000000"
 preserveAspectRatio="xMidYMid meet">
<metadata>
Created by potrace 1.16, written by Peter Selinger 2001-2019
</metadata>
<g transform="translate(0.000000,775.000000) scale(0.100000,-0.100000)"
fill="#000000" stroke="none">
<path d="M3044 7496 c-93 -46 -268 -123 -389 -171 -546 -214 -659 -268 -838
-401 -206 -153 -887 -617 -1160 -790 -197 -124 -259 -168 -350 -244 l-98 -82
52 -96 c71 -132 221 -383 277 -462 76 -107 182 -223 422 -460 250 -248 428
-420 434 -420 2 0 60 37 128 83 67 45 146 97 174 114 29 18 95 74 148 124 57
54 101 88 106 83 5 -5 5 -770 0 -1804 -5 -987 -9 -1998 -10 -2246 l0 -451
2129 0 2129 0 -5 2247 c-5 1729 -3 2249 6 2254 7 5 46 -25 101 -78 50 -47 131
-112 182 -145 51 -33 133 -88 181 -121 77 -54 90 -60 105 -48 30 23 341 327
525 513 287 290 342 367 606 837 18 32 31 64 29 72 -5 24 -177 164 -280 229
-115 72 -838 553 -978 650 -52 36 -117 80 -143 99 -26 18 -107 78 -180 132
-100 75 -168 117 -282 172 -132 64 -581 249 -705 291 -25 8 -132 57 -238 109
l-192 94 -118 -59 c-224 -112 -422 -179 -612 -208 -88 -13 -122 -14 -210 -4
-195 21 -411 91 -648 210 -67 33 -124 61 -126 61 -2 0 -79 -38 -172 -84z m180
-36 c18 -168 76 -380 143 -518 28 -58 57 -97 118 -158 333 -336 754 -360 1113
-63 85 71 149 148 190 234 56 114 109 307 132 475 6 47 13 95 16 107 l4 22 48
-21 c26 -11 51 -24 56 -29 10 -9 -5 -133 -30 -259 -53 -255 -170 -486 -302
-593 -218 -176 -514 -271 -741 -238 -198 29 -449 149 -575 276 -136 135 -237
377 -281 673 -22 144 -23 140 38 166 61 28 60 28 71 -74z m353 -61 c123 -46
265 -84 378 -100 217 -31 494 33 814 187 l153 74 -5 -33 c-3 -17 -9 -51 -12
-74 -6 -41 -7 -42 -98 -81 -465 -202 -837 -223 -1279 -73 -134 45 -277 111
-282 129 -3 10 -8 43 -12 75 l-6 58 122 -61 c67 -34 169 -79 227 -101z m1843
-59 c340 -129 705 -287 721 -312 3 -5 9 -9 13 -9 3 1 10 1 16 1 5 0 48 -29 94
-65 206 -157 1028 -716 1309 -890 71 -44 147 -97 169 -117 23 -21 45 -38 49
-38 4 0 15 -10 24 -22 8 -13 19 -22 23 -22 4 1 24 -13 46 -31 l39 -32 -63
-114 c-148 -266 -246 -418 -355 -547 -67 -80 -597 -613 -707 -712 -30 -27 -52
-39 -60 -34 -15 9 -121 86 -128 94 -3 3 -25 16 -50 29 -93 49 -156 98 -268
206 l-115 112 5 -2194 c3 -1365 2 -2196 -4 -2199 -6 -4 -5 -11 1 -17 15 -15
14 -50 -1 -65 -9 -9 -9 -12 0 -12 7 0 12 -14 12 -33 l0 -33 -2121 0 -2120 0 5
941 c3 517 9 1541 12 2275 l6 1334 -113 -107 c-103 -99 -189 -164 -279 -213
-19 -10 -37 -21 -40 -24 -3 -3 -36 -27 -73 -54 l-68 -48 -62 55 c-123 109
-624 614 -706 712 -89 107 -196 274 -325 504 l-80 143 44 38 c25 21 47 37 49
35 2 -3 13 7 23 21 11 14 23 23 25 20 3 -3 16 7 28 22 13 15 62 52 110 82 378
240 1170 777 1360 922 50 38 101 71 115 75 14 3 30 12 35 19 17 22 365 169
765 324 47 18 131 55 188 82 57 27 107 46 113 43 5 -4 9 -24 9 -45 0 -58 37
-242 70 -352 92 -300 217 -449 486 -582 249 -122 460 -141 704 -64 90 28 263
119 346 181 156 118 265 317 327 597 14 63 28 142 32 175 11 112 0 107 122 49
59 -29 169 -76 243 -104z m-2036 -5 c239 -100 463 -149 691 -150 228 0 458 51
702 155 64 28 117 49 118 48 5 -6 -37 -189 -61 -268 -41 -134 -91 -226 -164
-304 -114 -121 -236 -201 -385 -252 -72 -25 -94 -28 -210 -28 -113 1 -140 4
-210 27 -167 55 -357 193 -444 323 -53 79 -98 192 -135 342 -35 139 -39 165
-23 159 6 -3 61 -26 121 -52z"/>
<path d="M2505 5518 c-3 -7 -4 -317 -3 -688 l3 -675 115 0 115 0 3 252 2 253
1333 2 1332 3 0 120 0 120 -1332 3 -1333 2 0 180 0 180 318 2 317 3 0 125 0
125 -433 3 c-341 2 -434 0 -437 -10z"/>
<path d="M3515 5517 c-3 -7 -4 -136 -3 -287 l3 -275 115 0 115 0 3 158 3 159
172 -4 c165 -3 174 -4 229 -31 89 -43 155 -130 183 -237 l11 -45 114 -3 c62
-1 117 1 121 5 11 12 -14 129 -42 198 -73 177 -224 313 -399 360 -75 20 -618
22 -625 2z"/>
<path d="M4775 5517 c-3 -7 -4 -136 -3 -287 l3 -275 115 0 115 0 3 157 3 158
317 2 317 3 0 125 0 125 -433 3 c-343 2 -434 0 -437 -11z"/>
<path d="M3515 4598 c-3 -8 -4 -110 -3 -228 l3 -215 250 -3 c346 -4 430 12
560 104 74 52 113 93 157 164 41 66 89 176 81 184 -4 3 -61 6 -128 6 l-122 0
-36 -54 c-37 -55 -94 -98 -167 -123 -22 -8 -94 -13 -196 -13 l-161 0 -9 93 -9
92 -108 3 c-81 2 -109 0 -112 -10z"/>
<path d="M4775 4598 c-3 -8 -4 -110 -3 -228 l3 -215 115 0 115 0 0 225 0 225
-113 3 c-85 2 -114 0 -117 -10z"/>
</g>
</svg>
