<?xml version="1.0" standalone="no"?>
<!DOCTYPE svg PUBLIC "-//W3C//DTD SVG 20010904//EN"
 "http://www.w3.org/TR/2001/REC-SVG-20010904/DTD/svg10.dtd">
<svg version="1.0" xmlns="http://www.w3.org/2000/svg"
 width="300.000000pt" height="284.000000pt" viewBox="0 0 300.000000 284.000000"
 preserveAspectRatio="xMidYMid meet">
<metadata>
Created by potrace 1.10, written by Peter Selinger 2001-2011
</metadata>
<g transform="translate(0.000000,284.000000) scale(0.050000,-0.050000)"
fill="#000000" stroke="none">
<path d="M2231 5497 c-65 -34 -221 -101 -347 -150 -327 -126 -421 -177 -732
-396 -153 -108 -419 -290 -590 -403 -329 -218 -402 -273 -402 -303 0 -92 272
-458 551 -743 l303 -307 148 100 c81 55 170 124 196 153 27 28 54 52 61 52 6
0 8 -742 4 -1650 l-7 -1650 1562 0 1563 0 -1 955 c0 525 -1 1270 0 1654 l0
699 75 -71 c41 -39 132 -109 203 -156 l127 -85 279 277 c269 267 406 443 529
677 l56 107 -50 42 c-27 23 -251 178 -499 344 -247 167 -517 353 -600 414
-110 82 -232 145 -460 238 -170 69 -373 156 -450 192 l-140 67 -120 -57 c-383
-179 -604 -182 -968 -14 -92 42 -169 77 -170 76 -1 0 -55 -28 -121 -62z m409
-179 c271 -83 640 -52 888 76 l57 30 -14 -76 c-140 -744 -1042 -744 -1182 0
l-14 76 57 -30 c32 -16 126 -51 208 -76z m-124 -1503 l-6 -85 -235 -6 -235 -5
0 -110 0 -109 1000 0 1000 0 0 -90 0 -90 -1000 0 -1000 0 0 -160 0 -160 -100
0 -100 0 0 450 0 450 341 0 341 0 -6 -85z m686 38 c98 -52 191 -170 210 -268
l13 -65 -89 0 c-81 0 -91 6 -122 69 -47 99 -114 135 -273 146 l-139 10 -6
-107 -6 -108 -95 -6 -95 -6 0 191 0 191 257 0 c230 0 266 -5 345 -47z m1018
-43 l0 -90 -240 0 -240 0 0 -100 0 -100 -90 0 -90 0 0 190 0 190 330 0 330 0
0 -90z m-1424 -575 c12 -100 404 -57 404 45 0 11 45 20 100 20 119 0 125 -19
42 -134 -97 -134 -191 -166 -488 -166 l-254 0 0 151 0 151 95 -6 c87 -5 96
-11 101 -61z m944 -85 l0 -150 -90 0 -90 0 0 150 0 150 90 0 90 0 0 -150z"/>
</g>
</svg>
